# xmcd
#
# Track frame offsets: 
#        150
#        10786
#        24410
#        36681
#        47999
#        60234
#        73270
#        85404
#        98110
#        113920
#        130318
#        141810
#        158455
#
# Disc length: 2383 seconds
#
# Revision: 0
# Processed by: cddbd v1.5.2PL0 Copyright (c) Steve Scherf et al.
# Submitted via: ExactAudioCopy v0.99pb4
#
DISCID=ae094d0d
DTITLE=He Said, She Said - The Dream
DYEAR=2010
DGENRE=Country
TTITLE0=Shade of Shelton Laurel
TTITLE1=Taking Me By Storm
TTITLE2=I Wanna Roll
TTITLE3=Fishing With A Safety Pin
TTITLE4=Why Don't You Tell Me So?
TTITLE5=Tennessee Wagoner
TTITLE6=Two Daughters and a Beautiful Wife
TTITLE7=Flood of Tears
TTITLE8=Swannanoa Tunnel
TTITLE9=One, Four, Six
TTITLE10=Cowboys and Indians
TTITLE11=The Dream
TTITLE12=Bonus track
EXTD=
EXTT0=
EXTT1=
EXTT2=
EXTT3=
EXTT4=
EXTT5=
EXTT6=
EXTT7=
EXTT8=
EXTT9=
EXTT10=
EXTT11=
EXTT12=
PLAYORDER=
